<svg xmlns="http://www.w3.org/2000/svg"  viewBox="0 0 64 64" width="64px" height="64px"><path d="M 25.900391 3.9941406 A 1.0001 1.0001 0 0 0 25.800781 4 L 15 4 C 8.9365932 4 4 8.9365932 4 15 L 4 49 C 4 55.063407 8.9365932 60 15 60 L 49 60 C 55.063407 60 60 55.063407 60 49 L 60 15 C 60 8.9365932 55.063407 4 49 4 L 26.015625 4 A 1.0001 1.0001 0 0 0 25.900391 3.9941406 z M 15 6 L 22.289062 6 C 15.45746 10.724159 11 18.369137 11 27 C 11 33.770805 13.746229 39.945831 18.224609 44.564453 C 18.482868 44.830719 18.552683 45.182214 18.431641 45.449219 C 17.064487 48.46171 13.496094 50.636719 13.496094 50.636719 A 1.0001 1.0001 0 0 0 13.503906 52.369141 C 13.503906 52.369141 13.911389 52.580248 14.542969 52.724609 C 15.17456 52.86897 16.124008 53 17.5 53 C 19.868938 53 21.585464 52.582043 23.017578 52.134766 C 24.449692 51.687488 25.574292 51.240373 26.927734 51.072266 C 27.515763 50.999136 28.15564 51.104396 28.798828 51.333984 A 1.0001 1.0001 0 1 0 29.470703 49.451172 C 28.618478 49.146968 27.668879 48.965524 26.681641 49.087891 L 26.679688 49.087891 C 25.039147 49.291961 23.765186 49.805067 22.421875 50.224609 C 21.078036 50.644332 19.640062 51 17.5 51 C 17.008577 51 16.870967 50.940929 16.511719 50.912109 C 17.795211 49.870918 19.298328 48.376681 20.251953 46.275391 C 20.742653 45.192965 20.433003 43.971589 19.660156 43.173828 L 19.660156 43.171875 C 15.51717 38.89867 13 33.230662 13 27 C 13 17.965187 18.29952 10.101258 26.162109 6 L 49 6 C 53.982593 6 58 10.017407 58 15 L 58 49 C 58 53.982593 53.982593 58 49 58 L 15 58 C 10.017407 58 6 53.982593 6 49 L 6 15 C 6 10.017407 10.017407 6 15 6 z M 42.5 20 C 41.671 20 41 20.672 41 21.5 L 41 33.5 C 41 34.328 41.671 35 42.5 35 C 43.329 35 44 34.328 44 33.5 L 44 21.5 C 44 20.672 43.329 20 42.5 20 z M 20.75 21 C 19.921 21 19.25 21.672 19.25 22.5 C 19.25 23.328 19.921 24 20.75 24 L 25.076172 24 L 19.306641 32.041016 C 18.945641 32.538016 18.894828 33.187328 19.173828 33.736328 C 19.453828 34.284328 20.009 34.625 20.625 34.625 L 28 34.625 C 28.829 34.625 29.5 33.953 29.5 33.125 C 29.5 32.297 28.829 31.625 28 31.625 L 23.298828 31.625 L 29.21875 23.375 C 29.54675 22.918 29.590984 22.314453 29.333984 21.814453 C 29.077984 21.313453 28.562 21 28 21 L 20.75 21 z M 50 24.123047 C 47.243 24.123047 45 26.5635 45 29.5625 C 45 32.5615 47.243 35 50 35 C 52.757 35 55 32.5615 55 29.5625 C 55 26.5635 52.757 24.123047 50 24.123047 z M 34.125 24.125 C 31.571 24.125 29.5 26.5585 29.5 29.5625 C 29.5 32.5655 31.571 35.001953 34.125 35.001953 C 35.132 35.001953 36.061312 34.618562 36.820312 33.976562 C 37.076313 34.436563 37.561 34.751953 38.125 34.751953 C 38.954 34.751953 39.625 34.079953 39.625 33.251953 L 39.625 25.876953 C 39.625 25.047953 38.954 24.375 38.125 24.375 C 37.561 24.375 37.076312 24.689438 36.820312 25.148438 C 36.061312 24.506438 35.132 24.125 34.125 24.125 z M 50 27 C 51.103 27 52 28.1505 52 29.5625 C 52 30.9745 51.103 32.123047 50 32.123047 C 48.897 32.123047 48 30.9745 48 29.5625 C 48 28.1505 48.897 27 50 27 z M 34.5625 27.001953 C 35.7015 27.001953 36.623047 28.1475 36.623047 29.5625 C 36.624047 30.9775 35.7025 32.125 34.5625 32.125 C 33.4235 32.125 32.5 30.9775 32.5 29.5625 C 32.5 28.1475 33.4235 27.001953 34.5625 27.001953 z M 53.619141 45.285156 A 1.0001 1.0001 0 0 0 52.830078 46.869141 L 53.972656 48.509766 A 1.0001 1.0001 0 1 0 55.613281 47.367188 L 54.470703 45.724609 A 1.0001 1.0001 0 0 0 53.619141 45.285156 z M 49.277344 47.720703 A 1.0001 1.0001 0 0 0 48.400391 49.136719 L 49.208984 50.966797 A 1.0001 1.0001 0 1 0 51.037109 50.158203 L 50.230469 48.328125 A 1.0001 1.0001 0 0 0 49.277344 47.720703 z M 44.548828 49.291016 A 1.0001 1.0001 0 0 0 43.619141 50.529297 L 44.068359 52.478516 A 1.0003763 1.0003763 0 1 0 46.017578 52.027344 L 45.566406 50.078125 A 1.0001 1.0001 0 0 0 44.548828 49.291016 z M 34.707031 49.716797 A 1.0001 1.0001 0 0 0 33.689453 50.591797 L 33.410156 52.570312 A 1.0001699 1.0001699 0 1 0 35.390625 52.851562 L 35.669922 50.871094 A 1.0001 1.0001 0 0 0 34.707031 49.716797 z M 39.599609 49.958984 A 1.0001 1.0001 0 0 0 38.658203 51.013672 L 38.742188 53.011719 A 1.0001 1.0001 0 1 0 40.740234 52.927734 L 40.65625 50.929688 A 1.0001 1.0001 0 0 0 39.599609 49.958984 z"/></svg>